<svg xmlns="http://www.w3.org/2000/svg" viewBox="0 0 64 80" x="0px" y="0px"><title>1</title><path d="M48.95254,32c6.14679-3.88287,10.09284-7.86658,8.92438-10.69434-1.42468-3.44928-9.447-2.74707-18.72131-.00592C38.146,11.681,35.7305,4,32,4s-6.14606,7.68121-7.1557,17.30011c-9.27491-2.74109-17.29651-3.443-18.72126.00555C4.95456,24.13342,8.9006,28.11713,15.04739,32,8.9006,35.88287,4.95456,39.86658,6.123,42.69434c2.463,4.50351,13.1732,1.50365,18.721.004C25.8536,52.31781,28.26913,60,32,60s6.14636-7.682,7.15588-17.30157c5.54482,1.5065,16.27795,4.48951,18.72117-.00383C59.04538,39.86658,55.09933,35.88287,48.95254,32Zm3.29254-11.02246c7.91292-.08843,2.30558,5.07055-5.23171,9.843-2.28843-1.34179-4.80588-2.65557-7.43516-3.88836-.05664-1.214-.1344-2.41449-.23162-3.59418A48.83456,48.83456,0,0,1,52.24508,20.97754ZM34.17575,37.26465c-.73663.30438-1.46015.5918-2.17572.86969-1.86117-.71629-3.85086-1.56124-5.62945-2.376-.08821-2.40752-.08817-5.10906,0-7.51659,1.11175-.50586,2.252-1.00971,3.45361-1.50635.73681-.30444,1.4599-.59131,2.17572-.86926,1.86132.7159,3.85087,1.56076,5.62945,2.37562.0882,2.40752.08816,5.10906,0,7.51659C36.51761,36.26416,35.37735,36.768,34.17575,37.26465Zm3.35095.73846c.02627,3.09907-.43166,1.74668-2.73717,1.1698C35.70876,38.79791,36.62121,38.40381,37.5267,38.00311Zm-8.31634,1.1698c-2.30911.57882-2.76238,1.92777-2.73693-1.16979C27.37876,38.40384,28.29128,38.79793,29.21036,39.17291Zm-4.86963-4.36059c-1.95234-.94123-3.73365-1.884-5.35987-2.81232,1.62622-.92834,3.40753-1.87109,5.35987-2.81232C24.29166,31.05876,24.29166,32.94124,24.34073,34.81232Zm2.1325-8.81543c-.02642-3.0955.43163-1.74491,2.73516-1.16931C28.29011,25.20311,27.378,25.59623,26.47323,25.99689Zm8.31836-1.16925c2.307-.57755,2.76064-1.92445,2.73491,1.16924C36.62187,25.59625,35.70979,25.203,34.79159,24.82764Zm4.86762,4.36c1.95233.94123,3.73364,1.884,5.35986,2.81232-1.62622.92834-3.40753,1.87109-5.35986,2.81232C39.70827,32.94124,39.70827,31.05876,39.65921,29.18768ZM32,6c1.78113,0,4.17926,5.9635,5.201,15.90131-1.71558.549-3.45942,1.16082-5.20118,1.82269-1.7417-.66174-3.48547-1.2735-5.20086-1.82239C27.82058,11.96356,30.21878,6,32,6ZM7.97067,22.06934c2.00154-2.52162,11.35745-.2525,16.68262,1.2686-.09717,1.17982-.17493,2.38032-.23157,3.59425-2.62927,1.23279-5.14673,2.54657-7.43506,3.88824C10.63,26.91394,7.39377,23.46582,7.97067,22.06934Zm0,19.86132c-.5769-1.39648,2.65936-4.8446,9.016-8.75109,2.28833,1.34167,4.80579,2.65545,7.43506,3.88824.05664,1.21466.1344,2.41583.23175,3.59619C15.0787,43.51575,8.65225,43.57776,7.97067,41.93066ZM32,58c-1.78119,0-4.17945-5.96368-5.20105-15.902,1.71557-.54889,3.459-1.15973,5.20086-1.82159,1.74207.66192,3.4856,1.273,5.20124,1.8219C36.17935,52.03638,33.78116,58,32,58ZM56.02926,41.93066c-.68158,1.64631-7.10882,1.58417-16.6828-1.267.09729-1.1803.17511-2.38135.23175-3.59589,2.62928-1.23279,5.14673-2.54657,7.43506-3.88824C53.3699,37.08606,56.60617,40.53418,56.02926,41.93066Z"/><path d="M32,28a4.00016,4.00016,0,0,0,.00009,8A4.00016,4.00016,0,0,0,32,28Zm0,6a2.00021,2.00021,0,0,1,.00008-4A2.00021,2.00021,0,0,1,32,34Z"/><text x="0" y="79" fill="#000000" font-size="5px" font-weight="bold" font-family="'Helvetica Neue', Helvetica, Arial-Unicode, Arial, Sans-serif">Created by metami septiana</text><text x="0" y="84" fill="#000000" font-size="5px" font-weight="bold" font-family="'Helvetica Neue', Helvetica, Arial-Unicode, Arial, Sans-serif">from the Noun Project</text></svg>